<mxfile host="app.diagrams.net" modified="2023-03-21T05:37:43.804Z" agent="5.0 (Windows NT 10.0; Win64; x64) AppleWebKit/537.36 (KHTML, like Gecko) Chrome/111.0.0.0 Safari/537.36 Edg/111.0.1661.44" etag="q6kCh1EscGzG_0mJGTYc" version="21.0.8" type="github">
  <diagram name="Trang-1" id="44SiNElA3mg0KeMWJXq8">
    <mxGraphModel dx="823" dy="476" grid="1" gridSize="10" guides="1" tooltips="1" connect="1" arrows="1" fold="1" page="1" pageScale="1" pageWidth="827" pageHeight="1169" math="0" shadow="0">
      <root>
        <mxCell id="0" />
        <mxCell id="1" parent="0" />
      </root>
    </mxGraphModel>
  </diagram>
</mxfile>
